<svg width="185" height="23" viewBox="0 0 185 23" fill="none" xmlns="http://www.w3.org/2000/svg">
<path d="M1.77438 16.9908L3.41238 13.0848H11.0144L12.6524 16.9908H14.4164L7.94838 2.12278H6.47838L0.010376 16.9908H1.77438ZM7.21338 3.88678L10.4264 11.6988H3.97938L7.21338 3.88678ZM14.7009 7.16278V8.42278H16.7799V16.9908H18.1659V8.42278H20.4969V7.16278H18.1659V4.55878C18.1659 2.77378 18.7539 2.12278 19.9509 2.12278C20.2869 2.12278 20.6229 2.16478 21.0219 2.26978L21.2739 1.00978C20.8329 0.904783 20.4759 0.862784 20.0769 0.862784C17.8719 0.862784 16.7799 2.16478 16.7799 4.36978V7.16278H14.7009ZM20.9147 7.16278V8.42278H22.9937V16.9908H24.3797V8.42278H26.7107V7.16278H24.3797V4.55878C24.3797 2.77378 24.9677 2.12278 26.1647 2.12278C26.5007 2.12278 26.8367 2.16478 27.2357 2.26978L27.4877 1.00978C27.0467 0.904783 26.6897 0.862784 26.2907 0.862784C24.0857 0.862784 22.9937 2.16478 22.9937 4.36978V7.16278H20.9147ZM33.0506 6.91078C30.0686 6.91078 27.8426 9.09478 27.8426 12.0768C27.8426 15.0588 30.0476 17.2428 33.0506 17.2428C36.0956 17.2428 38.2796 15.0378 38.2796 12.0768C38.2796 8.98978 35.9696 6.91078 33.0506 6.91078ZM29.3546 12.0768C29.3546 9.78778 30.8876 8.17078 33.0296 8.17078C35.2976 8.17078 36.7676 9.85078 36.7676 12.0768C36.7676 14.3238 35.2766 15.9828 33.0506 15.9828C30.9086 15.9828 29.3546 14.3658 29.3546 12.0768ZM45.4148 6.91078C43.9238 6.91078 42.7898 7.66678 42.2648 8.98978H42.2228V7.16278H40.8578C40.8788 8.42278 40.9418 8.73778 40.9418 10.1658V16.9908H42.3278V11.5308C42.3278 9.80878 43.5038 8.29678 45.3938 8.29678C45.7298 8.29678 45.9818 8.31778 46.1708 8.40178L46.4438 7.03678C46.1288 6.95278 45.8138 6.91078 45.4148 6.91078ZM51.9554 17.2428C53.4044 17.2428 54.9374 16.5498 55.7774 15.3528H55.8194V16.9908H57.2054V1.11478H55.8194V8.80078H55.7774C54.9584 7.62478 53.4674 6.91078 51.9554 6.91078C48.9524 6.91078 46.7264 9.09478 46.7264 12.0768C46.7264 15.0378 48.9524 17.2428 51.9554 17.2428ZM48.2384 12.0768C48.2384 9.82978 49.7714 8.17078 51.9344 8.17078C54.1604 8.17078 55.8824 9.87178 55.8824 12.0768C55.8824 14.2818 54.1814 15.9828 51.9554 15.9828C49.7294 15.9828 48.2384 14.3238 48.2384 12.0768ZM63.1132 17.2428C64.6882 17.2428 65.7592 16.6758 66.5782 15.3948H66.6202C66.6202 16.0038 66.6622 16.5498 66.7462 16.9908H68.0902C67.9852 16.2348 67.9222 15.2478 67.9222 14.8908V10.3338C67.9222 8.29678 66.5572 6.91078 64.3102 6.91078C62.4832 6.91078 61.0972 7.39378 60.1732 8.33878L61.0132 9.32578C61.8532 8.56978 62.8402 8.17078 64.0162 8.17078C65.7172 8.17078 66.5362 8.96878 66.5362 10.7538V10.9638H65.9062C61.4542 10.9638 59.7322 12.0978 59.7322 14.3658C59.7322 16.1088 61.1602 17.2428 63.1132 17.2428ZM65.5702 12.0978H66.5362V12.6228C66.5362 14.8908 65.3392 15.9828 63.5542 15.9828C62.1892 15.9828 61.2442 15.2898 61.2442 14.1768C61.2442 12.7698 62.9452 12.0978 65.5702 12.0978ZM72.5119 16.9908V15.3528H72.5539C73.3729 16.5288 74.8849 17.2428 76.3759 17.2428C79.3999 17.2428 81.6049 15.0378 81.6049 12.0768C81.6049 9.09478 79.4209 6.91078 76.3759 6.91078C74.8639 6.91078 73.3729 7.62478 72.5539 8.80078H72.5119V1.11478H71.1259V16.9908H72.5119ZM76.3759 15.9828C74.1499 15.9828 72.4489 14.2818 72.4489 12.0768C72.4489 9.89278 74.1289 8.17078 76.3549 8.17078C78.5599 8.17078 80.0929 9.80878 80.0929 12.0768C80.0929 14.3658 78.5599 15.9828 76.3759 15.9828ZM85.6648 1.11478H84.2788V16.9908H85.6648V1.11478ZM93.4397 6.91078C90.6887 6.91078 88.5047 9.13678 88.5047 12.0768C88.5047 14.9958 90.6257 17.2428 93.5867 17.2428C95.2037 17.2428 96.6527 16.6128 97.8077 15.1638L96.7367 14.2818C96.0647 15.3528 94.8467 15.9828 93.5867 15.9828C91.7177 15.9828 90.1847 14.5128 89.9747 12.4548H98.1647V12.0348C98.1647 8.71678 96.1067 6.91078 93.4397 6.91078ZM96.6527 11.3208H90.0167C90.0587 9.57778 91.7807 8.17078 93.4607 8.17078C95.3927 8.17078 96.6527 9.40978 96.6527 11.3208Z" fill="#238CFE"/>
<path d="M113.725 1.74478C108.979 1.74478 105.871 4.99978 105.871 9.61978C105.871 14.2398 109.147 17.3688 113.725 17.3688C115.909 17.3688 117.988 16.5288 119.269 14.7228L117.085 13.1688C116.245 14.2398 115.153 14.9748 113.746 14.9748C110.617 14.9748 108.643 12.5178 108.643 9.45178C108.643 6.49078 110.701 4.13878 113.746 4.13878C115.048 4.13878 116.014 4.68478 116.875 5.60878L118.933 4.09678C117.526 2.50078 115.846 1.74478 113.725 1.74478ZM123.334 16.9908V11.4678C123.334 9.95578 124.153 8.92678 125.644 8.92678C126.841 8.92678 127.492 9.74578 127.492 11.7618V16.9908H130.012V10.5648C130.012 8.29678 128.794 6.65878 126.337 6.65878C125.035 6.65878 123.901 7.26778 123.376 8.31778H123.334V1.11478H120.814V16.9908H123.334ZM135.876 17.2428C137.22 17.2428 138.396 16.7388 139.11 15.6048H139.173V16.9908H141.441V10.9638C141.441 8.59078 140.58 6.65878 137.136 6.65878C135.162 6.65878 133.755 7.35178 132.852 8.27578L134.175 9.59878C134.868 8.96878 135.813 8.54878 136.863 8.54878C138.249 8.54878 139.173 9.24178 139.173 10.4178V10.7118H138.396C134.07 10.7118 132.201 11.8878 132.201 14.2188C132.201 16.0668 133.797 17.2428 135.876 17.2428ZM138.291 12.4758H139.026V13.1058C139.026 14.3868 138.228 15.3528 136.506 15.3528C135.561 15.3528 134.721 14.8908 134.721 14.0298C134.721 12.9588 136.065 12.4758 138.291 12.4758ZM144.152 16.9908H146.672V11.7408C146.672 10.3968 147.47 9.05278 149.381 9.05278C149.759 9.05278 150.116 9.11578 150.599 9.24178V6.80578C150.263 6.72178 150.074 6.65878 149.696 6.65878C148.373 6.65878 147.26 7.35178 146.714 8.50678H146.672V6.91078H144.152V16.9908ZM156.397 6.65878C153.331 6.65878 151.441 8.92678 151.441 11.9508C151.441 14.8698 153.499 17.1168 156.46 17.1168C157.762 17.1168 158.98 16.6338 159.757 15.6468H159.799V16.2978C159.799 18.5448 158.959 19.7628 156.607 19.7628C155.221 19.7628 154.15 19.2378 153.142 18.3138L151.63 20.3718C153.037 21.6108 154.738 22.0308 156.628 22.0308C160.429 22.0308 162.319 19.8048 162.319 16.1718V6.91078H159.925V8.42278H159.883C159.127 7.18378 157.804 6.65878 156.397 6.65878ZM153.961 11.9298C153.961 10.1448 155.179 8.92678 156.922 8.92678C158.707 8.92678 159.925 10.0398 159.925 11.8878C159.925 13.6518 158.686 14.8488 156.922 14.8488C155.305 14.8488 153.961 13.6098 153.961 11.9298ZM170.15 6.65878C167.063 6.65878 164.669 8.82178 164.669 11.9508C164.669 15.1008 167.063 17.2428 170.15 17.2428C171.872 17.2428 173.321 16.5708 174.413 15.2268L172.607 13.8618C171.893 14.7438 171.032 15.2268 169.898 15.2268C168.449 15.2268 167.357 14.2818 167.189 12.8328H174.875V12.1188C174.875 9.07378 173.342 6.65878 170.15 6.65878ZM167.189 10.9428C167.378 9.51478 168.281 8.54878 169.772 8.54878C171.263 8.54878 172.334 9.36778 172.355 10.9428H167.189ZM180.675 6.65878C178.953 6.65878 176.643 7.45678 176.643 9.91378C176.643 11.9718 178.218 12.4548 179.583 12.7698C180.864 13.0638 182.082 13.2318 182.082 14.1978C182.082 14.8908 181.326 15.3528 180.402 15.3528C179.541 15.3528 178.869 15.0588 178.008 14.1138L176.328 15.6888C177.357 16.8438 178.68 17.2428 180.234 17.2428C182.733 17.2428 184.602 16.1298 184.602 14.0088C184.602 11.9298 183.111 11.3628 181.557 11.0058C180.297 10.7118 179.163 10.5648 179.163 9.74578C179.163 9.09478 179.814 8.67478 180.633 8.67478C181.473 8.67478 182.103 9.01078 182.607 9.70378L184.287 8.19178C183.552 7.20478 182.25 6.65878 180.675 6.65878Z" fill="#0357EE"/>
</svg>
