<svg width="325" height="111" viewBox="0 0 325 111" fill="none" xmlns="http://www.w3.org/2000/svg">
<g filter="url(#filter0_d_426_7817)">
<rect x="22" y="7.28625" width="294.01" height="80.409" rx="10" fill="#DCF1FB" shape-rendering="crispEdges"/>
<path d="M77.7987 25.9908C81.734 25.9889 85.5509 27.3362 88.6129 29.8081C91.6749 32.2799 93.797 35.7268 94.6251 39.5739C95.4533 43.421 94.9374 47.4357 93.1636 50.9485C91.3899 54.4613 88.4654 57.2598 84.8779 58.8773C83.7312 61.4124 81.9867 63.6316 79.794 65.3445C77.6013 67.0574 75.0259 68.2129 72.2886 68.7119C69.5512 69.2109 66.7337 69.0385 64.0777 68.2094C61.4216 67.3804 59.0062 65.9195 57.0388 63.952C55.0713 61.9845 53.6104 59.5692 52.7814 56.9131C51.9523 54.2571 51.7799 51.4396 52.2789 48.7022C52.7779 45.9649 53.9334 43.3894 55.6463 41.1967C57.3592 39.004 59.5784 37.2595 62.1135 36.1128C63.4772 33.0956 65.6823 30.5357 68.4645 28.7403C71.2466 26.945 74.4876 25.9903 77.7987 25.9908ZM69.197 38.8933C67.5026 38.8933 65.8248 39.2271 64.2594 39.8755C62.694 40.5239 61.2717 41.4743 60.0735 42.6724C58.8754 43.8705 57.925 45.2929 57.2766 46.8583C56.6282 48.4237 56.2945 50.1015 56.2945 51.7959C56.2945 53.4903 56.6282 55.1681 57.2766 56.7335C57.925 58.2989 58.8754 59.7213 60.0735 60.9194C61.2717 62.1175 62.694 63.0679 64.2594 63.7163C65.8248 64.3647 67.5026 64.6985 69.197 64.6985C72.619 64.6985 75.9008 63.3391 78.3205 60.9194C80.7402 58.4997 82.0996 55.2179 82.0996 51.7959C82.0996 48.3739 80.7402 45.0921 78.3205 42.6724C75.9008 40.2527 72.619 38.8933 69.197 38.8933ZM77.7987 30.2916C75.9767 30.2895 74.1749 30.6743 72.5126 31.4205C70.8503 32.1668 69.3655 33.2575 68.1562 34.6204C70.5868 34.4729 73.021 34.843 75.2978 35.7063C77.5747 36.5696 79.6423 37.9064 81.364 39.6283C83.0857 41.3502 84.4223 43.418 85.2853 45.695C86.1484 47.972 86.5182 50.4062 86.3703 52.8367C88.3255 51.0984 89.7061 48.8067 90.3289 46.2657C90.9517 43.7247 90.7873 41.0543 89.8575 38.6089C88.9278 36.1634 87.2766 34.0584 85.1229 32.573C82.9693 31.0876 80.415 30.2919 77.7987 30.2916Z" fill="#0065FF"/>
<path d="M74.3878 43.9908V58.5362H72.044L65.1903 48.6286H65.0696V58.5362H62.4347V43.9908H64.7926L71.6392 53.9056H71.767V43.9908H74.3878Z" fill="#0065FF"/>
<path d="M61 51.9879H75.8153V53.3516H61V51.9879Z" fill="#0065FF"/>
<path d="M101.774 53.9908L103.412 50.0848H111.014L112.652 53.9908H114.416L107.948 39.1228H106.478L100.01 53.9908H101.774ZM107.213 40.8868L110.426 48.6988H103.979L107.213 40.8868ZM114.701 44.1628V45.4228H116.78V53.9908H118.166V45.4228H120.497V44.1628H118.166V41.5588C118.166 39.7738 118.754 39.1228 119.951 39.1228C120.287 39.1228 120.623 39.1648 121.022 39.2698L121.274 38.0098C120.833 37.9048 120.476 37.8628 120.077 37.8628C117.872 37.8628 116.78 39.1648 116.78 41.3698V44.1628H114.701ZM120.915 44.1628V45.4228H122.994V53.9908H124.38V45.4228H126.711V44.1628H124.38V41.5588C124.38 39.7738 124.968 39.1228 126.165 39.1228C126.501 39.1228 126.837 39.1648 127.236 39.2698L127.488 38.0098C127.047 37.9048 126.69 37.8628 126.291 37.8628C124.086 37.8628 122.994 39.1648 122.994 41.3698V44.1628H120.915ZM133.051 43.9108C130.069 43.9108 127.843 46.0948 127.843 49.0768C127.843 52.0588 130.048 54.2428 133.051 54.2428C136.096 54.2428 138.28 52.0378 138.28 49.0768C138.28 45.9898 135.97 43.9108 133.051 43.9108ZM129.355 49.0768C129.355 46.7878 130.888 45.1708 133.03 45.1708C135.298 45.1708 136.768 46.8508 136.768 49.0768C136.768 51.3238 135.277 52.9828 133.051 52.9828C130.909 52.9828 129.355 51.3658 129.355 49.0768ZM145.415 43.9108C143.924 43.9108 142.79 44.6668 142.265 45.9898H142.223V44.1628H140.858C140.879 45.4228 140.942 45.7378 140.942 47.1658V53.9908H142.328V48.5308C142.328 46.8088 143.504 45.2968 145.394 45.2968C145.73 45.2968 145.982 45.3178 146.171 45.4018L146.444 44.0368C146.129 43.9528 145.814 43.9108 145.415 43.9108ZM151.955 54.2428C153.404 54.2428 154.937 53.5498 155.777 52.3528H155.819V53.9908H157.205V38.1148H155.819V45.8008H155.777C154.958 44.6248 153.467 43.9108 151.955 43.9108C148.952 43.9108 146.726 46.0948 146.726 49.0768C146.726 52.0378 148.952 54.2428 151.955 54.2428ZM148.238 49.0768C148.238 46.8298 149.771 45.1708 151.934 45.1708C154.16 45.1708 155.882 46.8718 155.882 49.0768C155.882 51.2818 154.181 52.9828 151.955 52.9828C149.729 52.9828 148.238 51.3238 148.238 49.0768ZM163.113 54.2428C164.688 54.2428 165.759 53.6758 166.578 52.3948H166.62C166.62 53.0038 166.662 53.5498 166.746 53.9908H168.09C167.985 53.2348 167.922 52.2478 167.922 51.8908V47.3338C167.922 45.2968 166.557 43.9108 164.31 43.9108C162.483 43.9108 161.097 44.3938 160.173 45.3388L161.013 46.3258C161.853 45.5698 162.84 45.1708 164.016 45.1708C165.717 45.1708 166.536 45.9688 166.536 47.7538V47.9638H165.906C161.454 47.9638 159.732 49.0978 159.732 51.3658C159.732 53.1088 161.16 54.2428 163.113 54.2428ZM165.57 49.0978H166.536V49.6228C166.536 51.8908 165.339 52.9828 163.554 52.9828C162.189 52.9828 161.244 52.2898 161.244 51.1768C161.244 49.7698 162.945 49.0978 165.57 49.0978ZM172.512 53.9908V52.3528H172.554C173.373 53.5288 174.885 54.2428 176.376 54.2428C179.4 54.2428 181.605 52.0378 181.605 49.0768C181.605 46.0948 179.421 43.9108 176.376 43.9108C174.864 43.9108 173.373 44.6248 172.554 45.8008H172.512V38.1148H171.126V53.9908H172.512ZM176.376 52.9828C174.15 52.9828 172.449 51.2818 172.449 49.0768C172.449 46.8928 174.129 45.1708 176.355 45.1708C178.56 45.1708 180.093 46.8088 180.093 49.0768C180.093 51.3658 178.56 52.9828 176.376 52.9828ZM185.665 38.1148H184.279V53.9908H185.665V38.1148ZM193.44 43.9108C190.689 43.9108 188.505 46.1368 188.505 49.0768C188.505 51.9958 190.626 54.2428 193.587 54.2428C195.204 54.2428 196.653 53.6128 197.808 52.1638L196.737 51.2818C196.065 52.3528 194.847 52.9828 193.587 52.9828C191.718 52.9828 190.185 51.5128 189.975 49.4548H198.165V49.0348C198.165 45.7168 196.107 43.9108 193.44 43.9108ZM196.653 48.3208H190.017C190.059 46.5778 191.781 45.1708 193.461 45.1708C195.393 45.1708 196.653 46.4098 196.653 48.3208Z" fill="#238CFE"/>
<path d="M213.725 38.7448C208.979 38.7448 205.871 41.9998 205.871 46.6198C205.871 51.2398 209.147 54.3688 213.725 54.3688C215.909 54.3688 217.988 53.5288 219.269 51.7228L217.085 50.1688C216.245 51.2398 215.153 51.9748 213.746 51.9748C210.617 51.9748 208.643 49.5178 208.643 46.4518C208.643 43.4908 210.701 41.1388 213.746 41.1388C215.048 41.1388 216.014 41.6848 216.875 42.6088L218.933 41.0968C217.526 39.5008 215.846 38.7448 213.725 38.7448ZM223.334 53.9908V48.4678C223.334 46.9558 224.153 45.9268 225.644 45.9268C226.841 45.9268 227.492 46.7458 227.492 48.7618V53.9908H230.012V47.5648C230.012 45.2968 228.794 43.6588 226.337 43.6588C225.035 43.6588 223.901 44.2678 223.376 45.3178H223.334V38.1148H220.814V53.9908H223.334ZM235.876 54.2428C237.22 54.2428 238.396 53.7388 239.11 52.6048H239.173V53.9908H241.441V47.9638C241.441 45.5908 240.58 43.6588 237.136 43.6588C235.162 43.6588 233.755 44.3518 232.852 45.2758L234.175 46.5988C234.868 45.9688 235.813 45.5488 236.863 45.5488C238.249 45.5488 239.173 46.2418 239.173 47.4178V47.7118H238.396C234.07 47.7118 232.201 48.8878 232.201 51.2188C232.201 53.0668 233.797 54.2428 235.876 54.2428ZM238.291 49.4758H239.026V50.1058C239.026 51.3868 238.228 52.3528 236.506 52.3528C235.561 52.3528 234.721 51.8908 234.721 51.0298C234.721 49.9588 236.065 49.4758 238.291 49.4758ZM244.152 53.9908H246.672V48.7408C246.672 47.3968 247.47 46.0528 249.381 46.0528C249.759 46.0528 250.116 46.1158 250.599 46.2418V43.8058C250.263 43.7218 250.074 43.6588 249.696 43.6588C248.373 43.6588 247.26 44.3518 246.714 45.5068H246.672V43.9108H244.152V53.9908ZM256.397 43.6588C253.331 43.6588 251.441 45.9268 251.441 48.9508C251.441 51.8698 253.499 54.1168 256.46 54.1168C257.762 54.1168 258.98 53.6338 259.757 52.6468H259.799V53.2978C259.799 55.5448 258.959 56.7628 256.607 56.7628C255.221 56.7628 254.15 56.2378 253.142 55.3138L251.63 57.3718C253.037 58.6108 254.738 59.0308 256.628 59.0308C260.429 59.0308 262.319 56.8048 262.319 53.1718V43.9108H259.925V45.4228H259.883C259.127 44.1838 257.804 43.6588 256.397 43.6588ZM253.961 48.9298C253.961 47.1448 255.179 45.9268 256.922 45.9268C258.707 45.9268 259.925 47.0398 259.925 48.8878C259.925 50.6518 258.686 51.8488 256.922 51.8488C255.305 51.8488 253.961 50.6098 253.961 48.9298ZM270.15 43.6588C267.063 43.6588 264.669 45.8218 264.669 48.9508C264.669 52.1008 267.063 54.2428 270.15 54.2428C271.872 54.2428 273.321 53.5708 274.413 52.2268L272.607 50.8618C271.893 51.7438 271.032 52.2268 269.898 52.2268C268.449 52.2268 267.357 51.2818 267.189 49.8328H274.875V49.1188C274.875 46.0738 273.342 43.6588 270.15 43.6588ZM267.189 47.9428C267.378 46.5148 268.281 45.5488 269.772 45.5488C271.263 45.5488 272.334 46.3678 272.355 47.9428H267.189ZM280.675 43.6588C278.953 43.6588 276.643 44.4568 276.643 46.9138C276.643 48.9718 278.218 49.4548 279.583 49.7698C280.864 50.0638 282.082 50.2318 282.082 51.1978C282.082 51.8908 281.326 52.3528 280.402 52.3528C279.541 52.3528 278.869 52.0588 278.008 51.1138L276.328 52.6888C277.357 53.8438 278.68 54.2428 280.234 54.2428C282.733 54.2428 284.602 53.1298 284.602 51.0088C284.602 48.9298 283.111 48.3628 281.557 48.0058C280.297 47.7118 279.163 47.5648 279.163 46.7458C279.163 46.0948 279.814 45.6748 280.633 45.6748C281.473 45.6748 282.103 46.0108 282.607 46.7038L284.287 45.1918C283.552 44.2048 282.25 43.6588 280.675 43.6588Z" fill="#0357EE"/>
</g>
<defs>
<filter id="filter0_d_426_7817" x="0" y="0.286255" width="324.01" height="110.409" filterUnits="userSpaceOnUse" color-interpolation-filters="sRGB">
<feFlood flood-opacity="0" result="BackgroundImageFix"/>
<feColorMatrix in="SourceAlpha" type="matrix" values="0 0 0 0 0 0 0 0 0 0 0 0 0 0 0 0 0 0 127 0" result="hardAlpha"/>
<feOffset dx="-7" dy="8"/>
<feGaussianBlur stdDeviation="7.5"/>
<feComposite in2="hardAlpha" operator="out"/>
<feColorMatrix type="matrix" values="0 0 0 0 0.745833 0 0 0 0 0.745833 0 0 0 0 0.745833 0 0 0 0.25 0"/>
<feBlend mode="normal" in2="BackgroundImageFix" result="effect1_dropShadow_426_7817"/>
<feBlend mode="normal" in="SourceGraphic" in2="effect1_dropShadow_426_7817" result="shape"/>
</filter>
</defs>
</svg>
