<svg width="38" height="40" viewBox="0 0 38 40" fill="none" xmlns="http://www.w3.org/2000/svg">
<path d="M15.9998 0L30.5958 4.56C31.0028 4.68709 31.3586 4.94096 31.6112 5.28458C31.8638 5.62819 31.9999 6.04354 31.9998 6.47V10H35.9998C36.5302 10 37.0389 10.2107 37.414 10.5858C37.789 10.9609 37.9998 11.4696 37.9998 12V28C37.9998 28.5304 37.789 29.0391 37.414 29.4142C37.0389 29.7893 36.5302 30 35.9998 30L29.5598 30.002C28.7858 31.022 27.8458 31.922 26.7598 32.662L15.9998 40L5.23976 32.664C3.6248 31.5629 2.30326 30.084 1.39004 28.3558C0.476812 26.6277 -0.000446586 24.7026 -0.000244076 22.748V6.47C-2.92819e-06 6.04388 0.136329 5.62898 0.38888 5.28577C0.641431 4.94256 0.996999 4.68898 1.40376 4.562L15.9998 0ZM15.9998 4.188L3.99976 7.94V22.748C3.99947 23.9725 4.28026 25.1806 4.82049 26.2795C5.36071 27.3783 6.14597 28.3385 7.11576 29.086L7.49376 29.358L15.9998 35.16L23.5638 30H13.9998C13.4693 30 12.9606 29.7893 12.5855 29.4142C12.2105 29.0391 11.9998 28.5304 11.9998 28V12C11.9998 11.4696 12.2105 10.9609 12.5855 10.5858C12.9606 10.2107 13.4693 10 13.9998 10H27.9998V7.94L15.9998 4.188ZM15.9998 20V26H33.9998V20H15.9998ZM15.9998 16H33.9998V14H15.9998V16Z" fill="#1016E8" fill-opacity="0.5"/>
</svg>
