<svg width="325" height="111" viewBox="0 0 325 111" fill="none" xmlns="http://www.w3.org/2000/svg">
<g filter="url(#filter0_d_426_7823)">
<rect x="22" y="7" width="294.01" height="80.409" rx="10" fill="#DCF1FB" shape-rendering="crispEdges"/>
<g clip-path="url(#clip0_426_7823)">
<path d="M101.505 33.9795H71.5052C71.0406 33.9795 70.5928 34.1409 70.2608 34.4314C69.9284 34.7223 69.7385 35.1199 69.7385 35.5379V58.8712C69.7385 59.2891 69.9284 59.6868 70.2608 59.9777C70.5928 60.2682 71.0406 60.4295 71.5052 60.4295H101.505C101.97 60.4295 102.418 60.2682 102.75 59.9777C103.082 59.6868 103.272 59.2891 103.272 58.8712V35.5379C103.272 35.1199 103.082 34.7223 102.75 34.4314C102.418 34.1409 101.97 33.9795 101.505 33.9795ZM73.2718 57.3129V47.3045H99.7385V57.3129H73.2718ZM73.2718 37.0962H99.7385V41.2712H73.2718V37.0962Z" fill="#0065FF" stroke="#0065FF" stroke-width="0.2"/>
</g>
<path d="M113.521 53.7045H122.992V52.3185H115.033V46.6695H122.236V45.2835H115.033V40.2225H122.74V38.8365H113.521V53.7045ZM128.342 53.9565C129.917 53.9565 130.988 53.3895 131.807 52.1085H131.849C131.849 52.7175 131.891 53.2635 131.975 53.7045H133.319C133.214 52.9485 133.151 51.9615 133.151 51.6045V47.0475C133.151 45.0105 131.786 43.6245 129.539 43.6245C127.712 43.6245 126.326 44.1075 125.402 45.0525L126.242 46.0395C127.082 45.2835 128.069 44.8845 129.245 44.8845C130.946 44.8845 131.765 45.6825 131.765 47.4675V47.6775H131.135C126.683 47.6775 124.961 48.8115 124.961 51.0795C124.961 52.8225 126.389 53.9565 128.342 53.9565ZM130.799 48.8115H131.765V49.3365C131.765 51.6045 130.568 52.6965 128.783 52.6965C127.418 52.6965 126.473 52.0035 126.473 50.8905C126.473 49.4835 128.174 48.8115 130.799 48.8115ZM139.526 43.6245C137.363 43.6245 135.893 44.8005 135.893 46.5855C135.893 47.9715 136.859 48.8745 138.98 49.2945C141.059 49.7145 141.647 50.1975 141.626 51.0585C141.605 52.0875 140.639 52.6965 139.316 52.6965C138.14 52.6965 137.321 52.1295 136.733 51.2265L135.536 52.0455C136.376 53.3055 137.636 53.9565 139.316 53.9565C141.605 53.9565 143.138 52.8015 143.138 50.9325C143.138 50.2395 142.865 49.4205 142.004 48.7905C141.479 48.4125 140.744 48.2235 139.673 47.9925C137.888 47.6145 137.405 47.1735 137.405 46.3545C137.405 45.4515 138.266 44.8845 139.442 44.8845C140.45 44.8845 141.143 45.3885 141.563 46.2075L142.802 45.3885C142.235 44.2335 141.059 43.6245 139.526 43.6245ZM149.727 43.6245C146.976 43.6245 144.792 45.8505 144.792 48.7905C144.792 51.7095 146.913 53.9565 149.874 53.9565C151.491 53.9565 152.94 53.3265 154.095 51.8775L153.024 50.9955C152.352 52.0665 151.134 52.6965 149.874 52.6965C148.005 52.6965 146.472 51.2265 146.262 49.1685H154.452V48.7485C154.452 45.4305 152.394 43.6245 149.727 43.6245ZM152.94 48.0345H146.304C146.346 46.2915 148.068 44.8845 149.748 44.8845C151.68 44.8845 152.94 46.1235 152.94 48.0345ZM167.514 43.6245C164.532 43.6245 162.306 45.8085 162.306 48.7905C162.306 51.7725 164.511 53.9565 167.514 53.9565C170.559 53.9565 172.743 51.7515 172.743 48.7905C172.743 45.7035 170.433 43.6245 167.514 43.6245ZM163.818 48.7905C163.818 46.5015 165.351 44.8845 167.493 44.8845C169.761 44.8845 171.231 46.5645 171.231 48.7905C171.231 51.0375 169.74 52.6965 167.514 52.6965C165.372 52.6965 163.818 51.0795 163.818 48.7905ZM174.04 43.8765V45.1365H176.119V53.7045H177.505V45.1365H179.836V43.8765H177.505V41.2725C177.505 39.4875 178.093 38.8365 179.29 38.8365C179.626 38.8365 179.962 38.8785 180.361 38.9835L180.613 37.7235C180.172 37.6185 179.815 37.5765 179.416 37.5765C177.211 37.5765 176.119 38.8785 176.119 41.0835V43.8765H174.04ZM190.11 53.7045V47.5515H192.147C196.116 47.5515 197.943 46.2075 197.943 43.0995C197.943 39.3825 194.478 38.8365 192.567 38.8365H187.464V53.7045H190.11ZM190.11 41.1045H192.084C194.142 41.1045 195.171 41.7765 195.171 43.1835C195.171 45.1155 193.386 45.2835 191.832 45.2835H190.11V41.1045ZM203.074 53.9565C204.418 53.9565 205.594 53.4525 206.308 52.3185H206.371V53.7045H208.639V47.6775C208.639 45.3045 207.778 43.3725 204.334 43.3725C202.36 43.3725 200.953 44.0655 200.05 44.9895L201.373 46.3125C202.066 45.6825 203.011 45.2625 204.061 45.2625C205.447 45.2625 206.371 45.9555 206.371 47.1315V47.4255H205.594C201.268 47.4255 199.399 48.6015 199.399 50.9325C199.399 52.7805 200.995 53.9565 203.074 53.9565ZM205.489 49.1895H206.224V49.8195C206.224 51.1005 205.426 52.0665 203.704 52.0665C202.759 52.0665 201.919 51.6045 201.919 50.7435C201.919 49.6725 203.263 49.1895 205.489 49.1895ZM209.985 43.6245L214.29 53.7885L213.849 54.8805C213.387 55.9935 213.135 56.4765 211.812 56.4765C211.371 56.4765 210.93 56.3715 210.531 56.2245L210.216 58.4925C210.846 58.6605 211.497 58.7445 212.148 58.7445C214.668 58.7445 215.34 57.5055 216.159 55.4265L220.758 43.6245H218.133L215.613 50.6175H215.571L212.757 43.6245H209.985ZM224.655 53.7045V48.2025C224.655 46.7535 225.411 45.6405 226.965 45.6405C228.288 45.6405 228.687 46.6275 228.687 47.6355V53.7045H231.207V48.2445C231.207 46.6065 232.047 45.6405 233.37 45.6405C234.63 45.6405 235.239 46.4385 235.239 47.9295V53.7045H237.759V47.7615C237.759 44.9895 236.604 43.3725 234.126 43.3725C232.614 43.3725 231.543 43.9605 230.808 45.2415C230.283 43.9815 229.212 43.3725 227.658 43.3725C226.188 43.3725 225.117 44.0655 224.571 45.1995H224.529V43.6245H222.135V53.7045H224.655ZM245.489 43.3725C242.402 43.3725 240.008 45.5355 240.008 48.6645C240.008 51.8145 242.402 53.9565 245.489 53.9565C247.211 53.9565 248.66 53.2845 249.752 51.9405L247.946 50.5755C247.232 51.4575 246.371 51.9405 245.237 51.9405C243.788 51.9405 242.696 50.9955 242.528 49.5465H250.214V48.8325C250.214 45.7875 248.681 43.3725 245.489 43.3725ZM242.528 47.6565C242.717 46.2285 243.62 45.2625 245.111 45.2625C246.602 45.2625 247.673 46.0815 247.694 47.6565H242.528ZM255.091 53.7045V48.1605C255.091 46.8165 255.784 45.6405 257.401 45.6405C258.598 45.6405 259.249 46.4595 259.249 48.4755V53.7045H261.769V47.2575C261.769 45.7035 261.097 43.3725 258.094 43.3725C256.771 43.3725 255.616 43.9185 255.007 45.2415H254.965V43.6245H252.571V53.7045H255.091ZM265.532 45.7665V50.4915C265.532 53.0325 266.456 53.9565 268.829 53.9565C269.396 53.9565 270.341 53.8515 270.824 53.6205V51.4995C270.614 51.6675 270.089 51.8145 269.459 51.8145C268.472 51.8145 268.052 51.3105 268.052 50.2395V45.7665H270.824V43.6245H268.052V40.7055H265.532V43.6245H263.453V45.7665H265.532Z" fill="#0357EE"/>
</g>
<defs>
<filter id="filter0_d_426_7823" x="0" y="0" width="324.01" height="110.409" filterUnits="userSpaceOnUse" color-interpolation-filters="sRGB">
<feFlood flood-opacity="0" result="BackgroundImageFix"/>
<feColorMatrix in="SourceAlpha" type="matrix" values="0 0 0 0 0 0 0 0 0 0 0 0 0 0 0 0 0 0 127 0" result="hardAlpha"/>
<feOffset dx="-7" dy="8"/>
<feGaussianBlur stdDeviation="7.5"/>
<feComposite in2="hardAlpha" operator="out"/>
<feColorMatrix type="matrix" values="0 0 0 0 0.745833 0 0 0 0 0.745833 0 0 0 0 0.745833 0 0 0 0.25 0"/>
<feBlend mode="normal" in2="BackgroundImageFix" result="effect1_dropShadow_426_7823"/>
<feBlend mode="normal" in="SourceGraphic" in2="effect1_dropShadow_426_7823" result="shape"/>
</filter>
<clipPath id="clip0_426_7823">
<rect x="66.5051" y="29.7045" width="40" height="35" rx="9" fill="white"/>
</clipPath>
</defs>
</svg>
